<svg width="62" height="63" viewBox="0 0 62 63" fill="none" xmlns="http://www.w3.org/2000/svg">
<path d="M23.04 31.6052C23.04 33.642 23.8492 35.5955 25.2895 37.0358C26.7297 38.476 28.6832 39.2852 30.72 39.2852C32.7569 39.2852 34.7103 38.476 36.1506 37.0358C37.5909 35.5955 38.4 33.642 38.4 31.6052C38.4 29.5683 37.5909 27.6149 36.1506 26.1746C34.7103 24.7343 32.7569 23.9252 30.72 23.9252C28.6832 23.9252 26.7297 24.7343 25.2895 26.1746C23.8492 27.6149 23.04 29.5683 23.04 31.6052Z" stroke="#FFCC00" stroke-width="5.12" stroke-linecap="round" stroke-linejoin="round"/>
<path d="M30.7202 46.9652H12.8002C11.4423 46.9652 10.14 46.4257 9.17979 45.4656C8.2196 44.5054 7.68018 43.2031 7.68018 41.8452L7.68018 21.3652C7.68018 20.0073 8.2196 18.705 9.17979 17.7448C10.14 16.7846 11.4423 16.2452 12.8002 16.2452H48.6402C49.9981 16.2452 51.3004 16.7846 52.2606 17.7448C53.2207 18.705 53.7602 20.0073 53.7602 21.3652V32.8852M46.0802 31.6052H46.1058M15.3602 31.6052H15.3858M40.9602 49.5252H56.3202M56.3202 49.5252L48.6402 41.8452M56.3202 49.5252L48.6402 57.2052" stroke="#FFCC00" stroke-width="5.12" stroke-linecap="round" stroke-linejoin="round"/>
</svg>
