<svg width="62" height="63" viewBox="0 0 62 63" fill="none" xmlns="http://www.w3.org/2000/svg">
<path d="M56.3201 30.3252V13.977C56.3201 11.9521 56.3201 10.9409 55.8235 9.89639C55.4613 9.20406 54.9704 8.58717 54.3771 8.07879C53.4708 7.36199 52.7131 7.19047 51.2001 6.84231C48.8449 6.30471 46.2491 6.00519 43.5201 6.00519C38.6126 6.00519 34.13 6.97287 30.7201 8.56519C27.3102 10.1575 22.8276 11.1252 17.9201 11.1252C15.1912 11.1252 12.5953 10.8257 10.2401 10.2881C7.78252 9.72487 5.12012 11.4554 5.12012 13.977L5.12012 41.5533C5.12012 43.5783 5.12012 44.5921 5.61676 45.634C5.89836 46.2305 6.54604 47.042 7.06316 47.4516C7.9694 48.1684 8.72716 48.3399 10.2401 48.6881C12.5953 49.2257 15.1912 49.5252 17.9201 49.5252C21.6808 49.5252 25.1905 48.9569 28.1601 47.9764" stroke="#FFCC00" stroke-width="3.84" stroke-linecap="round" stroke-linejoin="round"/>
<path d="M14.0801 30.3252V30.3482M47.3601 25.1847V25.2103M49.4926 36.7252L51.602 38.6657C52.0602 39.1162 52.2881 39.3415 52.2087 39.5335C52.1294 39.7255 51.8017 39.7255 51.154 39.7255H43.2078C39.1374 39.7255 35.8401 42.9665 35.8401 46.9652C35.8401 47.8663 36.009 48.7316 36.3137 49.5252M42.6676 57.2052L40.5582 55.2647C40.0999 54.8141 39.8721 54.5889 39.9514 54.3969C40.0308 54.2049 40.3585 54.2049 41.0062 54.2049H48.9524C53.0228 54.2049 56.3201 50.9639 56.3201 46.9652C56.3201 46.0641 56.1511 45.1988 55.8465 44.4052M37.1201 27.7652C37.1201 29.4626 36.4458 31.0904 35.2456 32.2907C34.0453 33.4909 32.4175 34.1652 30.7201 34.1652C29.0227 34.1652 27.3948 33.4909 26.1946 32.2907C24.9944 31.0904 24.3201 29.4626 24.3201 27.7652C24.3201 26.0678 24.9944 24.4399 26.1946 23.2397C27.3948 22.0395 29.0227 21.3652 30.7201 21.3652C32.4175 21.3652 34.0453 22.0395 35.2456 23.2397C36.4458 24.4399 37.1201 26.0678 37.1201 27.7652Z" stroke="#FFCC00" stroke-width="3.84" stroke-linecap="round" stroke-linejoin="round"/>
</svg>
