<svg width="62" height="62" viewBox="0 0 62 62" fill="none" xmlns="http://www.w3.org/2000/svg">
<path d="M26.8801 18.3652C24.8433 18.3652 22.8898 19.1743 21.4495 20.6146C20.0093 22.0549 19.2001 24.0083 19.2001 26.0452C19.2001 28.0821 20.0093 30.0355 21.4495 31.4758C22.8898 32.9161 24.8433 33.7252 26.8801 33.7252C28.917 33.7252 30.8704 32.9161 32.3107 31.4758C33.751 30.0355 34.5601 28.0821 34.5601 26.0452C34.5601 24.0083 33.751 22.0549 32.3107 20.6146C30.8704 19.1743 28.917 18.3652 26.8801 18.3652ZM23.0401 26.0452C23.0401 25.0268 23.4447 24.05 24.1648 23.3299C24.885 22.6098 25.8617 22.2052 26.8801 22.2052C27.8985 22.2052 28.8753 22.6098 29.5954 23.3299C30.3155 24.05 30.7201 25.0268 30.7201 26.0452C30.7201 27.0636 30.3155 28.0403 29.5954 28.7605C28.8753 29.4806 27.8985 29.8852 26.8801 29.8852C25.8617 29.8852 24.885 29.4806 24.1648 28.7605C23.4447 28.0403 23.0401 27.0636 23.0401 26.0452ZM5.12012 16.4452C5.12012 14.9175 5.72697 13.4525 6.80718 12.3723C7.88739 11.2921 9.35247 10.6852 10.8801 10.6852H42.8801C43.6365 10.6852 44.3855 10.8342 45.0844 11.1236C45.7832 11.4131 46.4182 11.8374 46.9531 12.3723C47.4879 12.9071 47.9122 13.5421 48.2017 14.2409C48.4911 14.9398 48.6401 15.6888 48.6401 16.4452V28.6052H44.8001V22.2052H42.8801C41.3525 22.2052 39.8874 21.5983 38.8072 20.5181C37.727 19.4379 37.1201 17.9728 37.1201 16.4452V14.5252H16.6401V16.4452C16.6401 17.9728 16.0333 19.4379 14.9531 20.5181C13.8728 21.5983 12.4078 22.2052 10.8801 22.2052H8.96012V29.8852H10.8801C12.4078 29.8852 13.8728 30.4921 14.9531 31.5723C16.0333 32.6525 16.6401 34.1175 16.6401 35.6452V37.5652H35.8401V41.4052H10.8801C9.35247 41.4052 7.88739 40.7983 6.80718 39.7181C5.72697 38.6379 5.12012 37.1728 5.12012 35.6452L5.12012 16.4452ZM10.8801 14.5252C10.3709 14.5252 9.88254 14.7275 9.52247 15.0876C9.1624 15.4476 8.96012 15.936 8.96012 16.4452V18.3652H10.8801C11.3893 18.3652 11.8777 18.1629 12.2378 17.8028C12.5978 17.4428 12.8001 16.9544 12.8001 16.4452V14.5252H10.8801ZM44.8001 18.3652V16.4452C44.8001 15.936 44.5978 15.4476 44.2378 15.0876C43.8777 14.7275 43.3893 14.5252 42.8801 14.5252H40.9601V16.4452C40.9601 17.505 41.8203 18.3652 42.8801 18.3652H44.8001ZM8.96012 35.6452C8.96012 36.705 9.82028 37.5652 10.8801 37.5652H12.8001V35.6452C12.8001 35.136 12.5978 34.6476 12.2378 34.2876C11.8777 33.9275 11.3893 33.7252 10.8801 33.7252H8.96012V35.6452ZM11.2667 45.2452H35.8401V49.0852H17.9201C16.5716 49.0856 15.2467 48.7309 14.0788 48.0569C12.9108 47.3828 11.9409 46.4131 11.2667 45.2452ZM56.3201 28.6052V23.4852C56.3205 22.1367 55.9659 20.8118 55.2918 19.6439C54.6177 18.4759 53.648 17.506 52.4801 16.8318V28.6052H56.3201ZM42.2401 31.1652C41.2217 31.1652 40.245 31.5698 39.5248 32.2899C38.8047 33.01 38.4001 33.9868 38.4001 35.0052V55.4852C38.4001 56.5036 38.8047 57.4803 39.5248 58.2005C40.245 58.9206 41.2217 59.3252 42.2401 59.3252H55.0401C56.0585 59.3252 57.0353 58.9206 57.7554 58.2005C58.4755 57.4803 58.8801 56.5036 58.8801 55.4852V35.0052C58.8801 33.9868 58.4755 33.01 57.7554 32.2899C57.0353 31.5698 56.0585 31.1652 55.0401 31.1652H42.2401ZM43.5201 42.6852H46.0801C46.4196 42.6852 46.7452 42.82 46.9852 43.0601C47.2253 43.3001 47.3601 43.6257 47.3601 43.9652C47.3601 44.3047 47.2253 44.6302 46.9852 44.8703C46.7452 45.1103 46.4196 45.2452 46.0801 45.2452H43.5201C43.1806 45.2452 42.8551 45.1103 42.615 44.8703C42.375 44.6302 42.2401 44.3047 42.2401 43.9652C42.2401 43.6257 42.375 43.3001 42.615 43.0601C42.8551 42.82 43.1806 42.6852 43.5201 42.6852ZM51.2001 42.6852H53.7601C54.0996 42.6852 54.4252 42.82 54.6652 43.0601C54.9053 43.3001 55.0401 43.6257 55.0401 43.9652C55.0401 44.3047 54.9053 44.6302 54.6652 44.8703C54.4252 45.1103 54.0996 45.2452 53.7601 45.2452H51.2001C50.8606 45.2452 50.5351 45.1103 50.295 44.8703C50.055 44.6302 49.9201 44.3047 49.9201 43.9652C49.9201 43.6257 50.055 43.3001 50.295 43.0601C50.5351 42.82 50.8606 42.6852 51.2001 42.6852ZM43.5201 47.8052H46.0801C46.4196 47.8052 46.7452 47.9401 46.9852 48.1801C47.2253 48.4201 47.3601 48.7457 47.3601 49.0852C47.3601 49.4247 47.2253 49.7502 46.9852 49.9903C46.7452 50.2303 46.4196 50.3652 46.0801 50.3652H43.5201C43.1806 50.3652 42.8551 50.2303 42.615 49.9903C42.375 49.7502 42.2401 49.4247 42.2401 49.0852C42.2401 48.7457 42.375 48.4201 42.615 48.1801C42.8551 47.9401 43.1806 47.8052 43.5201 47.8052ZM51.2001 47.8052H53.7601C54.0996 47.8052 54.4252 47.9401 54.6652 48.1801C54.9053 48.4201 55.0401 48.7457 55.0401 49.0852C55.0401 49.4247 54.9053 49.7502 54.6652 49.9903C54.4252 50.2303 54.0996 50.3652 53.7601 50.3652H51.2001C50.8606 50.3652 50.5351 50.2303 50.295 49.9903C50.055 49.7502 49.9201 49.4247 49.9201 49.0852C49.9201 48.7457 50.055 48.4201 50.295 48.1801C50.5351 47.9401 50.8606 47.8052 51.2001 47.8052ZM43.5201 52.9252H46.0801C46.4196 52.9252 46.7452 53.0601 46.9852 53.3001C47.2253 53.5401 47.3601 53.8657 47.3601 54.2052C47.3601 54.5447 47.2253 54.8702 46.9852 55.1103C46.7452 55.3503 46.4196 55.4852 46.0801 55.4852H43.5201C43.1806 55.4852 42.8551 55.3503 42.615 55.1103C42.375 54.8702 42.2401 54.5447 42.2401 54.2052C42.2401 53.8657 42.375 53.5401 42.615 53.3001C42.8551 53.0601 43.1806 52.9252 43.5201 52.9252ZM51.2001 52.9252H53.7601C54.0996 52.9252 54.4252 53.0601 54.6652 53.3001C54.9053 53.5401 55.0401 53.8657 55.0401 54.2052C55.0401 54.5447 54.9053 54.8702 54.6652 55.1103C54.4252 55.3503 54.0996 55.4852 53.7601 55.4852H51.2001C50.8606 55.4852 50.5351 55.3503 50.295 55.1103C50.055 54.8702 49.9201 54.5447 49.9201 54.2052C49.9201 53.8657 50.055 53.5401 50.295 53.3001C50.5351 53.0601 50.8606 52.9252 51.2001 52.9252ZM42.2401 36.2852C42.2401 35.9457 42.375 35.6201 42.615 35.3801C42.8551 35.1401 43.1806 35.0052 43.5201 35.0052H53.7601C54.0996 35.0052 54.4252 35.1401 54.6652 35.3801C54.9053 35.6201 55.0401 35.9457 55.0401 36.2852V38.8452C55.0401 39.1847 54.9053 39.5102 54.6652 39.7503C54.4252 39.9903 54.0996 40.1252 53.7601 40.1252H43.5201C43.1806 40.1252 42.8551 39.9903 42.615 39.7503C42.375 39.5102 42.2401 39.1847 42.2401 38.8452V36.2852Z" fill="#FFCC00"/>
</svg>
