<svg width="62" height="62" viewBox="0 0 62 62" fill="none" xmlns="http://www.w3.org/2000/svg">
<path d="M33.2801 5.56519H28.1601C17.298 5.56519 11.8683 5.56519 8.4942 8.93927C5.12012 12.3133 5.12012 17.7457 5.12012 28.6052C5.12012 39.4647 5.12012 44.897 8.4942 48.2711C11.8683 51.6452 17.3006 51.6452 28.1601 51.6452H33.2801C44.1422 51.6452 49.572 51.6452 52.946 48.2711C56.3201 44.897 56.3201 39.4647 56.3201 28.6052C56.3201 17.7457 56.3201 12.3133 52.946 8.93927C49.572 5.56519 44.1396 5.56519 33.2801 5.56519Z" stroke="#FFCC00" stroke-width="3.84" stroke-linecap="round" stroke-linejoin="round"/>
<path d="M43.5204 38.8452C46.0804 37.4884 46.0804 35.2996 46.0804 30.9245V26.2858C46.0804 21.9108 46.0804 19.722 43.5204 18.3652M46.0804 56.7652V51.6452M15.3604 56.7652V51.6452M24.3204 33.7252C24.9961 33.7286 25.6659 33.5988 26.2914 33.3433C26.917 33.0878 27.4862 32.7116 27.9664 32.2362C28.4465 31.7608 28.8284 31.1954 29.0901 30.5724C29.3518 29.9494 29.4882 29.2809 29.4916 28.6052C29.4916 25.7764 27.1773 23.4852 24.3204 23.4852M24.3204 33.7252C23.6446 33.7286 22.9748 33.5988 22.3493 33.3433C21.7237 33.0878 21.1545 32.7116 20.6743 32.2362C20.1942 31.7608 19.8123 31.1954 19.5506 30.5724C19.2889 29.9494 19.1525 29.2809 19.1492 28.6052C19.1492 25.7764 21.4634 23.4852 24.3204 23.4852M24.3204 33.7252V38.8452M24.3204 23.4852V18.3652M19.8404 31.1652L15.3604 33.7252M33.2804 23.4852L28.8004 26.0452M28.8004 31.1652L33.2804 33.7252M15.3604 23.4852L19.8404 26.0452" stroke="#FFCC00" stroke-width="3.84" stroke-linecap="round" stroke-linejoin="round"/>
</svg>
