<svg width="64" height="63" viewBox="0 0 64 63" fill="none" xmlns="http://www.w3.org/2000/svg">
<path d="M8.64755 27.6628C8.15616 27.5308 7.73726 27.2092 7.48286 26.7685C7.22845 26.3279 7.15936 25.8043 7.29075 25.3127C8.62341 20.3449 11.4968 15.9274 15.4979 12.6953C19.4991 9.46321 24.4219 7.58288 29.5589 7.32458C34.696 7.06628 39.7826 8.44331 44.0878 11.2577C48.3929 14.0722 51.695 18.1791 53.5192 22.9882L55.4648 19.5297C55.7143 19.0856 56.13 18.7589 56.6205 18.6214C57.1109 18.4838 57.6358 18.5467 58.0799 18.7962C58.5239 19.0457 58.8506 19.4614 58.9882 19.9519C59.1257 20.4423 59.0628 20.9672 58.8133 21.4113L54.3717 29.3012C54.1216 29.7443 53.7059 30.0701 53.2158 30.2069C52.7257 30.3437 52.2014 30.2803 51.758 30.0308L43.8706 25.5892C43.4296 25.338 43.106 24.9223 42.9705 24.4331C42.8351 23.944 42.8989 23.4211 43.148 22.9788C43.397 22.5365 43.8111 22.2109 44.2996 22.073C44.7881 21.9352 45.3113 21.9964 45.7547 22.2433L50.0428 24.6599C48.5643 20.5574 45.8147 17.0341 42.1945 14.6029C38.5743 12.1717 34.2726 10.9597 29.9157 11.1434C25.5588 11.3271 21.3743 12.8969 17.9715 15.6241C14.5688 18.3513 12.1256 22.0936 10.9976 26.306C10.8656 26.7974 10.544 27.2163 10.1034 27.4707C9.66271 27.7251 9.1391 27.7942 8.64755 27.6628ZM52.9176 35.5476C53.409 35.6796 53.8279 36.0012 54.0823 36.4419C54.3367 36.8825 54.4058 37.4061 54.2744 37.8977C52.9413 42.868 50.066 47.2873 46.062 50.5199C42.0581 53.7526 37.132 55.6318 31.9923 55.8873C26.8527 56.1429 21.7645 54.7615 17.4596 51.942C13.1548 49.1225 9.85526 45.0101 8.03571 40.1966L6.07219 43.6833C5.82096 44.1243 5.40531 44.4479 4.91613 44.5833C4.42696 44.7187 3.90407 44.655 3.4618 44.4059C3.01953 44.1568 2.69387 43.7428 2.55604 43.2543C2.41821 42.7658 2.47941 42.2426 2.72627 41.7991L7.16787 33.9118C7.2917 33.692 7.45761 33.4988 7.65613 33.3432C7.85465 33.1876 8.08189 33.0726 8.32486 33.0049C8.56783 32.9371 8.82177 32.9179 9.07217 32.9483C9.32257 32.9787 9.56452 33.0582 9.78419 33.1822L17.669 37.6212C17.89 37.7442 18.0845 37.9097 18.2414 38.1081C18.3982 38.3065 18.5143 38.534 18.583 38.7774C18.6517 39.0209 18.6716 39.2755 18.6416 39.5266C18.6116 39.7778 18.5323 40.0205 18.4082 40.2409C18.2841 40.4613 18.1176 40.655 17.9184 40.8109C17.7192 40.9668 17.4912 41.0817 17.2474 41.1492C17.0037 41.2167 16.749 41.2354 16.498 41.2041C16.247 41.1728 16.0046 41.0923 15.7848 40.9671L11.5301 38.571C13.0138 42.6686 15.7658 46.1862 19.3861 48.6121C23.0065 51.0381 27.3063 52.2459 31.6603 52.0601C36.0143 51.8742 40.1955 50.3043 43.5959 47.5786C46.9963 44.8529 49.4385 41.1136 50.5676 36.9044C50.6995 36.413 51.0212 35.9941 51.4618 35.7397C51.9025 35.4853 52.4261 35.4162 52.9176 35.5476Z" fill="#FFCC00"/>
<path d="M30.7816 20.8737C31.2908 20.8737 31.7792 21.0759 32.1393 21.436C32.4993 21.7961 32.7016 22.2844 32.7016 22.7937V23.2289C33.6551 23.4694 34.501 24.0214 35.1053 24.7972C35.7095 25.573 36.0375 26.5284 36.0373 27.5117C36.0373 28.021 35.835 28.5093 35.4749 28.8694C35.1149 29.2295 34.6265 29.4317 34.1173 29.4317C33.6081 29.4317 33.1197 29.2295 32.7597 28.8694C32.3996 28.5093 32.1973 28.021 32.1973 27.5117C32.1966 27.3581 32.1351 27.2109 32.0262 27.1025C31.9173 26.994 31.7699 26.9332 31.6162 26.9332H30.605C30.3167 26.9349 30.0381 27.0373 29.8173 27.2226C29.5965 27.4079 29.4474 27.6646 29.3958 27.9482C29.3442 28.2318 29.3933 28.5246 29.5346 28.7758C29.6759 29.0271 29.9006 29.221 30.1698 29.3242L32.7426 30.2893C33.7142 30.6532 34.5509 31.306 35.1402 32.1599C35.7295 33.0138 36.0431 34.0277 36.0386 35.0652C36.0341 36.1027 35.7119 37.1139 35.1153 37.9627C34.5187 38.8114 33.6763 39.457 32.7016 39.8125V40.4167C32.7016 40.9259 32.4993 41.4143 32.1393 41.7743C31.7792 42.1344 31.2908 42.3367 30.7816 42.3367C30.2724 42.3367 29.784 42.1344 29.424 41.7743C29.0639 41.4143 28.8616 40.9259 28.8616 40.4167V39.9841C27.9093 39.7409 27.0649 39.1878 26.4614 38.412C25.858 37.6361 25.5298 36.6815 25.5285 35.6986C25.5285 35.1894 25.7308 34.701 26.0909 34.341C26.4509 33.9809 26.9393 33.7786 27.4485 33.7786C27.9577 33.7786 28.4461 33.9809 28.8061 34.341C29.1662 34.701 29.3685 35.1894 29.3685 35.6986C29.3685 36.0186 29.6296 36.2797 29.9496 36.2797H30.9608C31.2503 36.2796 31.5305 36.1779 31.7527 35.9924C31.9749 35.8068 32.1249 35.5492 32.1767 35.2644C32.2285 34.9797 32.1787 34.6857 32.0361 34.4339C31.8934 34.182 31.6669 33.9882 31.396 33.8861L28.8232 32.921C27.8515 32.5574 27.0146 31.9048 26.4251 31.0511C25.8355 30.1974 25.5217 29.1835 25.5259 28.146C25.5301 27.1086 25.8521 26.0973 26.4485 25.2483C27.0448 24.3994 27.887 23.7536 28.8616 23.3978V22.7937C28.8616 22.2844 29.0639 21.7961 29.424 21.436C29.784 21.0759 30.2724 20.8737 30.7816 20.8737Z" fill="#FFCC00"/>
</svg>
