<svg width="62" height="62" viewBox="0 0 62 62" fill="none" xmlns="http://www.w3.org/2000/svg">
<path d="M17.8843 9.91718C25.0446 17.8404 36.8539 0.742144 43.8427 6.94758C47.8619 10.5162 46.5896 18.401 41.3723 23.5364M35.3025 36.2442C35.3486 35.3866 35.5867 33.8199 34.2862 32.6295C33.7892 32.1955 33.2091 31.8671 32.5812 31.6644C29.8984 30.7172 26.6011 33.8839 28.9332 36.7844C30.1876 38.3409 31.1528 38.8196 31.0632 40.5885C30.9992 41.8327 29.7755 43.1332 28.1652 43.6298C26.7649 44.0599 25.2212 43.489 24.2459 42.3985C23.0529 41.0673 23.1707 39.8103 23.163 39.2625M34.2862 32.6321L35.7556 31.1601M24.3508 42.5649L22.9556 43.9601" stroke="#FFCC00" stroke-width="3.84" stroke-linecap="round" stroke-linejoin="round"/>
<path d="M46.7788 17.4257C49.1468 17.8814 49.6793 19.3764 50.3859 23.5287C51.0233 27.2663 51.2025 31.754 51.2025 33.6663C51.1344 34.3675 50.8489 35.0298 50.3859 35.5607C45.4323 40.7524 35.5993 50.5572 30.638 55.4263C28.6924 57.1671 25.7536 57.2055 23.6851 55.6081C19.4534 51.8014 15.3881 47.498 11.4048 43.6119C9.80476 41.5511 9.84316 38.6199 11.584 36.6794C16.8345 31.2343 26.3347 21.9134 31.6953 16.7626C32.2329 16.3018 32.8934 16.0151 33.5974 15.9511C34.8006 15.9511 36.864 16.1124 38.8761 16.2276" stroke="#FFCC00" stroke-width="3.84" stroke-linecap="round" stroke-linejoin="round"/>
</svg>
