<svg width="37" height="39" viewBox="0 0 37 39" fill="none" xmlns="http://www.w3.org/2000/svg">
<g clip-path="url(#clip0_631_2390)">
<path d="M32.824 4.57445C31.8807 3.70318 28.0688 0.933132 19.5779 0.895499C19.5779 0.895499 9.56493 0.291084 4.68377 4.77288C1.96664 7.49331 1.0108 11.4739 0.90998 16.409C0.809155 21.3441 0.678709 30.5928 9.58486 33.1005H9.59341L9.58771 36.9272C9.58771 36.9272 9.53075 38.4764 10.5498 38.7923C11.7825 39.1755 12.5059 37.998 13.6828 36.7287C14.3287 36.0319 15.2208 35.0084 15.8929 34.2261C21.984 34.7393 26.6686 33.5664 27.2006 33.393C28.4305 32.9939 35.3896 32.1015 36.5215 22.8534C37.6898 13.3214 35.9564 7.29203 32.824 4.57445Z" fill="white"/>
<path d="M30.8427 6.49973C30.0452 5.77444 26.6029 3.60938 19.4205 3.57802C19.4205 3.57802 10.9153 3.01865 6.78665 6.76203C4.48877 9.03314 3.71464 12.4105 3.62977 16.5319C3.54489 20.6533 3.10514 28.5267 10.6362 30.621C10.6362 30.621 10.6066 36.4662 10.6032 36.9799C10.6032 37.3391 10.6601 37.5849 10.8652 37.6356C11.0127 37.6716 11.2337 37.5952 11.4217 37.4076C12.6259 36.197 16.4812 31.5413 16.4812 31.5413C21.654 31.8794 25.7695 30.8571 26.2121 30.7122C27.2557 30.3764 32.9002 29.8912 33.8554 22.1672C34.8426 14.2054 33.4926 8.77085 30.8427 6.49973Z" fill="#7360F2"/>
<path d="M23.0729 16.1931C22.9795 14.3081 22.0229 13.318 20.2031 13.223" stroke="white" stroke-width="1.03988" stroke-linecap="round" stroke-linejoin="round"/>
<path d="M25.5366 17.02C25.5746 15.2638 25.0549 13.7965 23.9775 12.618C22.8952 11.4354 21.3971 10.7843 19.4746 10.6434" stroke="white" stroke-width="1.03988" stroke-linecap="round" stroke-linejoin="round"/>
<path d="M28.0587 18.0076C28.0355 14.96 27.1258 12.5598 25.3296 10.807C23.5334 9.05424 21.2995 8.16853 18.6279 8.1499" stroke="white" stroke-width="1.03988" stroke-linecap="round" stroke-linejoin="round"/>
<path d="M20.2981 22.6313C20.2981 22.6313 20.9731 22.6884 21.3366 22.2402L22.0452 21.3478C22.387 20.9053 23.2118 20.6231 24.0195 21.0735C24.6248 21.4191 25.2125 21.7948 25.7802 22.1991C26.3163 22.5937 27.4139 23.5106 27.4174 23.5106C27.9403 23.9525 28.061 24.6014 27.705 25.2856C27.705 25.2896 27.7022 25.2965 27.7022 25.2999C27.3101 25.9803 26.8122 26.5939 26.2274 27.1177C26.2206 27.1211 26.2206 27.1245 26.2143 27.128C25.7062 27.553 25.207 27.7945 24.7168 27.8527C24.6446 27.8653 24.5712 27.8699 24.498 27.8664C24.2818 27.8685 24.0667 27.8353 23.8612 27.7683L23.8452 27.7449C23.0899 27.5317 21.8287 26.998 19.7285 25.8382C18.5131 25.1749 17.3561 24.4098 16.2697 23.5511C15.7252 23.1209 15.2058 22.6598 14.7141 22.17L14.6617 22.1176L14.6093 22.0651L14.5568 22.0127C14.5392 21.9956 14.5221 21.9779 14.5044 21.9602C14.0152 21.468 13.5545 20.9481 13.1248 20.403C12.267 19.3156 11.5027 18.1576 10.84 16.9413C9.68139 14.8384 9.14821 13.5771 8.93517 12.8199L8.91182 12.8039C8.84504 12.5981 8.81214 12.3828 8.81441 12.1664C8.81042 12.0932 8.81482 12.0197 8.82751 11.9475C8.88865 11.4575 9.13037 10.9574 9.55265 10.4473C9.55607 10.441 9.55949 10.441 9.5629 10.4341C10.086 9.84872 10.699 9.35057 11.3789 8.95846C11.3823 8.95846 11.3891 8.95504 11.3931 8.95504C12.0767 8.59866 12.7249 8.71954 13.1658 9.24014C13.1692 9.24356 14.0835 10.3423 14.476 10.8789C14.88 11.4478 15.2552 12.0366 15.6004 12.6431C16.0504 13.4511 15.7684 14.2784 15.3264 14.6194L14.4349 15.3288C13.9849 15.6925 14.0442 16.3682 14.0442 16.3682C14.0442 16.3682 15.3646 21.3706 20.2981 22.6313Z" fill="white"/>
</g>
<defs>
<clipPath id="clip0_631_2390">
<rect width="36" height="38" fill="white" transform="translate(0.887695 0.867859)"/>
</clipPath>
</defs>
</svg>
