<svg width="37" height="37" viewBox="0 0 37 37" fill="none" xmlns="http://www.w3.org/2000/svg">
<g clip-path="url(#clip0_604_2682)">
<path d="M1.68091 18.5856C1.68 21.5986 2.47574 24.5407 3.98896 27.134L1.53613 35.9947L10.7013 33.6171C13.2263 34.9787 16.0693 35.6972 18.9627 35.6982H18.9704C28.4985 35.6982 36.2547 28.0272 36.2586 18.5989C36.2605 14.03 34.4638 9.73405 31.1993 6.50204C27.9355 3.27003 23.5947 1.48919 18.9698 1.48715C9.44054 1.48715 1.68477 9.1575 1.68091 18.5856Z" fill="url(#paint0_linear_604_2682)"/>
<path d="M1.06493 18.5793C1.06377 21.7011 1.88823 24.7485 3.45529 27.4346L0.914551 36.6128L10.4084 34.1499C13.0241 35.5612 15.9692 36.305 18.9663 36.3061H18.9741C28.8441 36.3061 36.8787 28.3593 36.8829 18.5937C36.8846 13.8606 35.0234 9.41032 31.6424 6.06234C28.2609 2.7145 23.7645 0.869943 18.9741 0.867777C9.10239 0.867777 1.06885 8.81331 1.06486 18.5793H1.06493ZM6.7186 26.9721L6.3642 26.4152C4.8741 24.0712 4.08745 21.3622 4.08873 18.5805C4.09189 10.4633 10.769 3.85952 18.9797 3.85952C22.9558 3.86111 26.6927 5.39442 29.5034 8.17705C32.3138 10.9595 33.8603 14.6585 33.8591 18.5925C33.8556 26.71 27.1783 33.3147 18.9741 33.3147H18.9683C16.2969 33.3133 13.677 32.6037 11.3921 31.2622L10.8483 30.9434L5.21446 32.4047L6.7186 26.9721Z" fill="url(#paint1_linear_604_2682)"/>
<path fill-rule="evenodd" clip-rule="evenodd" d="M14.4961 11.1751C14.1609 10.4379 13.808 10.423 13.4891 10.4101C13.2283 10.3991 12.9297 10.3998 12.6316 10.3998C12.3333 10.3998 11.8484 10.5107 11.4384 10.9537C11.0282 11.3967 9.87207 12.4676 9.87207 14.6458C9.87207 16.8242 11.4757 18.9288 11.6992 19.2245C11.923 19.5197 14.795 24.1323 19.3432 25.9069C23.1233 27.3817 23.8925 27.0883 24.713 27.0145C25.5334 26.9407 27.3605 25.9438 27.7334 24.91C28.1063 23.8764 28.1063 22.9904 27.9944 22.8052C27.8825 22.6207 27.5842 22.51 27.1367 22.2886C26.6891 22.0672 24.4892 20.996 24.0789 20.8484C23.6687 20.7009 23.3703 20.6271 23.072 21.0703C22.7737 21.5131 21.9167 22.51 21.6555 22.8053C21.3945 23.1011 21.1334 23.138 20.6859 22.9166C20.2383 22.6945 18.7971 22.2275 17.0874 20.7193C15.7571 19.546 14.8591 18.0968 14.5979 17.6536C14.3369 17.2108 14.57 16.971 14.7945 16.7503C14.9954 16.5519 15.2421 16.2335 15.4658 15.975C15.6891 15.7165 15.7637 15.532 15.9129 15.2368C16.062 14.9411 15.9874 14.6826 15.8756 14.4612C15.7637 14.2398 14.894 12.0504 14.4961 11.1751Z" fill="white"/>
</g>
<defs>
<linearGradient id="paint0_linear_604_2682" x1="18.8973" y1="35.9947" x2="18.8973" y2="1.48712" gradientUnits="userSpaceOnUse">
<stop stop-color="#20B038"/>
<stop offset="1" stop-color="#60D66A"/>
</linearGradient>
<linearGradient id="paint1_linear_604_2682" x1="18.8988" y1="36.6129" x2="18.8988" y2="0.867795" gradientUnits="userSpaceOnUse">
<stop stop-color="#F9F9F9"/>
<stop offset="1" stop-color="white"/>
</linearGradient>
<clipPath id="clip0_604_2682">
<rect width="36" height="36" fill="white" transform="translate(0.887695 0.867859)"/>
</clipPath>
</defs>
</svg>
